PathFileType	4	(X/Y/Z)	C:/Users/opensim2020/Desktop/walking_exp_matlab/subject01_walking14_straight_02.trc																																																																																																																												
DataRate	CameraRate	NumFrames	NumMarkers	Units	OrigDataRate	OrigDataStartFrame	OrigNumFrames																																																																																																																								
100	100	8	42	mm	100	1147	125																																																																																																																								
Frame#	Time	LFHD			RFHD			LBHD			RBHD			C7			T10			CLAV			STRN			RBAK			LSHO			LUPA			LELB			LFRM			LWRA			LWRB			LFIN			RSHO			RUPA			RELB			RFRM			RWRA			RWRB			RFIN			LASI			RASI			LPSI			RPSI			LTHI			LKNE			LTIB			LANK			LHEE			LTOE			RTHI			RKNE			RTIB			RANK			RHEE			RTOE			*39			*40			*41		
		X1	Y1	Z1	X2	Y2	Z2	X3	Y3	Z3	X4	Y4	Z4	X5	Y5	Z5	X6	Y6	Z6	X7	Y7	Z7	X8	Y8	Z8	X9	Y9	Z9	X10	Y10	Z10	X11	Y11	Z11	X12	Y12	Z12	X13	Y13	Z13	X14	Y14	Z14	X15	Y15	Z15	X16	Y16	Z16	X17	Y17	Z17	X18	Y18	Z18	X19	Y19	Z19	X20	Y20	Z20	X21	Y21	Z21	X22	Y22	Z22	X23	Y23	Z23	X24	Y24	Z24	X25	Y25	Z25	X26	Y26	Z26	X27	Y27	Z27	X28	Y28	Z28	X29	Y29	Z29	X30	Y30	Z30	X31	Y31	Z31	X32	Y32	Z32	X33	Y33	Z33	X34	Y34	Z34	X35	Y35	Z35	X36	Y36	Z36	X37	Y37	Z37	X38	Y38	Z38	X39	Y39	Z39	X40	Y40	Z40	X41	Y41	Z41	X42	Y42	Z42
																																																																																																																															
1	0	-994.99988	1670.20569	1058.97546	-956.41412	1674.09888	1167.23535	-1102.49109	1618.44641	1092.35413	-1065.26941	1621.3208	1207.3927	-1125.64526	1435.34412	1117.07678	-1185.89185	1146.72205	1104.66858	-983.03687	1360.10315	1105.59448	-953.59021	1202.59973	1095.68555	-1189.32434	1248.13257	1191.48401	-1047.27087	1400.64075	949.24756	-1115.45679	1230.76343	856.60535	-1166.7738	1090.89929	852.64398	-1163.64905	978.87158	820.91235	-1123.19568	843.77509	824.09894	-1179.23596	857.6795	809.24664	-1158.65637	780.57593	784.85602	-1037.28308	1398.47913	1257.46021	-1095.9021	1208.50903	1367.75305	-1082.73035	1082.90845	1388.04016	-995.66486	995.59918	1419.72083	-862.28668	951.75226	1407.14575	-899.60565	923.14142	1438.8877	-823.42139	889.14709	1452.052	-1020.47498	934.17889	993.84192	-1033.42847	929.54602	1211.97656	-1206.76904	950.52795	1032.54358	-1215.70618	962.56982	1175.4856	-970.49756	613.81415	931.70081	-937.56512	486.30505	959.11182	-939.55939	301.02686	954.97339	-901.49396	81.97351	1012.55298	-934.31427	42.33005	1070.4519	-756.28589	86.85496	1005.55652	-1178.21252	619.17139	1269.62524	-1217.80518	464.21286	1251.33948	-1314.53772	316.30243	1252.3219	-1378.74658	115.83729	1212.6073	-1425.51221	90.09122	1155.33264	-1254.91858	39.99949	1235.40283	-974.70697	1707.49548	1149.46375	-1973.01672	1023.40369	3101.96265	-2012.50513	1022.13239	3140.73389
2	0.01	-982.36902	1668.40735	1057.8136	-943.62152	1672.50171	1166.04028	-1089.78076	1616.63354	1091.45093	-1052.41394	1619.70679	1206.396	-1112.82141	1433.54285	1116.39453	-1172.89221	1144.74792	1104.97791	-970.11035	1358.17615	1105.13049	-940.63873	1200.64978	1095.7002	-1176.42029	1246.55994	1191.58447	-1034.39392	1398.19849	948.57086	-1104.1106	1228.48145	856.63336	-1156.69177	1089.58447	853.19165	-1156.35596	977.79443	821.00269	-1119.27502	841.64514	823.51508	-1174.97131	857.03131	808.95465	-1156.4043	779.4718	784.31421	-1024.28748	1397.23853	1257.05493	-1081.91577	1207.78796	1368.09216	-1068.50476	1082.24878	1389.12122	-979.23254	997.16589	1420.47278	-845.05682	956.68799	1406.54736	-881.18542	927.0976	1438.60376	-804.0838	895.48499	1451.26941	-1007.00323	932.04773	994.97461	-1020.57196	927.72827	1213.07275	-1193.47473	948.57483	1032.95898	-1202.61377	960.98553	1175.77136	-959.96606	610.41125	930.86646	-923.8288	484.94061	959.27454	-918.41864	300.93478	953.95905	-873.24298	82.74959	1011.13269	-904.66974	41.49527	1068.82446	-727.71533	92.10144	1005.31274	-1168.61816	618.66473	1270.50586	-1210.08362	464.08795	1252.10352	-1309.33386	317.67917	1252.78723	-1376.70227	118.34164	1213.2301	-1424.0127	93.6716	1155.82349	-1254.5022	40.19349	1235.33728	-962.04962	1705.80591	1148.18445	-1973.16248	1023.42407	3101.84912	-2012.53406	1022.11078	3140.72339
3	0.02	-969.73389	1666.67102	1056.46497	-930.77716	1670.93274	1164.69495	-1077.00317	1614.84534	1090.34778	-1039.52185	1618.16492	1205.34363	-1099.8772	1431.68323	1115.3717	-1159.7312	1142.77625	1105.1283	-957.12726	1356.33362	1104.20056	-927.63165	1198.78369	1095.64966	-1163.7417	1245.10217	1191.38733	-1021.39325	1395.79163	947.69012	-1092.31738	1226.20947	856.49805	-1146.23486	1088.05652	853.5257	-1148.37451	976.57898	821.02606	-1114.45142	839.68182	823.13855	-1169.81201	856.37488	809.15588	-1153.32703	778.63483	783.8988	-1011.31964	1395.94299	1256.17517	-1068.05139	1206.9353	1368.21069	-1054.56287	1081.56274	1389.92224	-963.33606	998.41522	1420.76782	-828.52319	961.19818	1405.64966	-863.52899	930.72784	1438.14282	-785.53168	901.37201	1450.31567	-993.2937	930.0506	995.83002	-1007.06757	925.94287	1213.71411	-1180.25525	946.6355	1033.08813	-1189.22607	959.32178	1175.81824	-948.89954	607.60712	929.65387	-909.96649	484.05539	959.27777	-899.00232	300.87424	953.33044	-847.36804	83.23357	1009.73169	-878.25269	40.94991	1066.92749	-701.7879	96.5799	1005.06653	-1158.48633	618.15186	1271.40564	-1201.56445	463.70746	1252.47241	-1303.62402	319.16232	1253.45569	-1374.51917	121.01075	1213.6261	-1422.59692	97.53701	1156.5553	-1254.26868	40.18794	1235.36255	-949.21643	1704.22668	1146.79065	-1973.20154	1023.56927	3101.89478	-2012.57361	1022.15454	3140.82031
4	0.03	-956.97418	1664.96924	1054.95422	-917.8421	1669.44238	1163.12646	-1064.16968	1613.1272	1089.09009	-1026.47925	1616.64331	1203.89954	-1086.85022	1430.06335	1114.33459	-1146.448	1140.85266	1105.15027	-943.875	1354.52673	1103.44043	-914.41046	1197.03528	1095.39294	-1150.65381	1243.50696	1190.81287	-1008.24249	1393.40686	946.67084	-1080.43872	1223.92322	856.11877	-1135.65186	1086.68066	853.36938	-1139.83936	975.37854	820.96906	-1108.61841	837.76208	822.92767	-1163.76978	855.65063	808.76361	-1149.04834	777.60132	783.60962	-998.49091	1394.65503	1254.80249	-1054.47253	1206.05591	1368.0144	-1040.81238	1080.87903	1390.47192	-947.9007	999.52167	1420.79736	-812.63849	965.16864	1404.56384	-846.64447	933.98517	1437.49622	-767.83917	906.76416	1449.30164	-979.36072	928.11517	996.6936	-993.95416	924.12402	1214.70325	-1166.59363	944.67389	1032.86084	-1175.82104	957.599	1175.63538	-936.50366	605.70178	928.74017	-895.89429	483.42313	959.3457	-881.41858	300.43149	953.05115	-824.99518	83.71674	1008.6015	-855.36682	40.35334	1065.27466	-679.35638	99.83186	1005.11688	-1147.77271	617.59222	1272.23987	-1192.64941	463.53882	1253.77539	-1297.10547	320.55814	1254.16064	-1372.43665	123.88308	1214.57007	-1420.89465	102.02843	1157.50159	-1253.828	40.55172	1235.62988	-936.354	1702.49304	1145.06409	-1973.0321	1023.86151	3102.11938	-2012.55981	1021.99158	3140.68042
5	0.04	-944.11841	1663.28723	1053.28357	-904.85736	1668.02222	1161.35632	-1051.2583	1611.49731	1087.64868	-1013.40894	1615.24622	1202.44006	-1073.72229	1428.37549	1113.06909	-1133.13672	1139.08154	1105.03381	-930.62238	1352.83533	1102.50818	-901.09772	1195.37903	1094.88232	-1137.51538	1241.87329	1190.00098	-994.9762	1391.10742	945.54266	-1068.13062	1221.66003	855.42584	-1124.26514	1084.96973	853.4245	-1130.56897	974.08728	820.85699	-1102.01135	835.888	822.72418	-1156.73401	854.87262	808.68634	-1143.52771	776.39075	783.44745	-985.33295	1393.45947	1253.88892	-1041.19556	1205.09717	1367.43774	-1027.33936	1080.17761	1390.74084	-932.96423	1000.38824	1420.47034	-797.36151	968.60602	1403.36829	-830.41827	936.84845	1436.60962	-750.97394	911.25909	1447.73083	-965.1731	926.41351	997.3913	-980.48828	922.54083	1215.3739	-1152.13257	942.48969	1032.45776	-1162.13721	955.85144	1175.23035	-921.97058	604.99969	928.74127	-881.38092	483.01059	959.48285	-865.43921	299.56622	952.8949	-806.01898	83.78323	1007.78784	-836.02808	39.52848	1064.32397	-660.16937	101.02896	1005.10498	-1136.5061	617.06885	1273.06934	-1182.8335	463.14465	1254.75024	-1290.01099	322.22818	1254.98877	-1369.51709	127.30311	1215.83655	-1418.75818	106.82522	1158.6178	-1253.46997	40.47228	1235.77881	-923.40692	1701.19287	1143.41455	-1973.20581	1023.32892	3101.97119	-2012.49268	1022.06702	3140.80884
6	0.05	-931.25635	1661.7627	1051.35254	-891.82745	1666.67957	1159.41296	-1038.29456	1609.93933	1086.06702	-1000.45587	1614.07593	1201.11584	-1060.47693	1426.8208	1111.70667	-1119.52502	1137.3031	1104.75952	-917.25201	1351.26855	1101.43994	-887.65833	1193.91504	1094.32336	-1124.22876	1240.26025	1188.96411	-981.71698	1388.89661	944.27655	-1055.54321	1219.51477	854.71863	-1112.78076	1083.495	853.25653	-1120.63025	972.78522	820.69464	-1094.52197	834.11383	822.58142	-1148.8595	854.12878	808.00629	-1137.00012	775.31537	783.34161	-972.22339	1392.28748	1252.84387	-1028.29712	1204.12219	1366.60461	-1014.10596	1079.43945	1390.71729	-918.55554	1001.22729	1420.12939	-782.66241	971.50323	1401.95703	-814.89423	939.17584	1435.57458	-734.88049	915.38434	1446.21753	-950.49481	924.92395	998.0376	-966.87573	921.14819	1216.05518	-1137.79028	940.62061	1031.93286	-1148.28845	954.0932	1174.6095	-905.47998	605.05847	929.83136	-866.02307	482.64929	959.70319	-850.56708	298.20886	952.78802	-790.42963	82.3154	1007.53973	-820.39563	38.23725	1063.87451	-644.67377	100.29491	1005.09808	-1124.6178	616.51355	1273.83984	-1172.1377	462.67371	1255.82129	-1282.1167	323.83926	1255.99463	-1366.4552	130.55322	1216.56506	-1415.77881	112.01198	1159.99292	-1253.02405	40.32599	1235.54944	-910.45386	1699.69397	1141.35889	-1973.09912	1023.80847	3102.02148	-2012.52612	1021.96887	3140.71631
7	0.06	-918.22345	1660.29199	1049.33984	-878.68604	1665.41235	1157.31177	-1025.27649	1608.50171	1084.32837	-987.08148	1612.68347	1198.95557	-1047.16699	1425.30249	1110.1886	-1105.66211	1135.55457	1104.36133	-903.87048	1349.84399	1100.17834	-873.97125	1192.59607	1093.61963	-1110.78516	1238.69299	1187.7478	-968.39099	1386.85339	942.79297	-1042.72937	1217.30554	853.8468	-1100.7655	1081.84692	853.06024	-1110.125	971.46259	820.46741	-1086.01965	832.35809	822.44061	-1139.98486	853.14673	808.04425	-1129.35498	774.02655	783.37134	-959.03595	1391.1272	1251.49292	-1015.6192	1203.17969	1365.49585	-1001.10693	1078.73206	1390.41003	-904.58783	1001.72595	1419.41589	-768.57916	973.79346	1400.42444	-800.02008	941.15778	1434.59351	-719.5816	918.7265	1444.76147	-935.5614	923.58191	998.58099	-952.9563	919.71216	1216.63513	-1123.07227	938.85382	1031.32349	-1134.28418	952.26093	1173.78613	-887.79993	605.45612	931.55609	-850.13611	482.28223	960.13977	-836.54468	296.57721	952.58704	-777.82617	80.5304	1007.49951	-808.46643	37.02149	1063.84595	-632.34027	97.11997	1005.03955	-1112.08545	615.97601	1274.59937	-1160.45789	461.92233	1256.84741	-1273.6355	325.58917	1257.11023	-1363.0094	134.64137	1217.98425	-1412.70508	117.6134	1161.28967	-1252.53723	40.29117	1235.62024	-897.36493	1698.3446	1139.10254	-1973.24854	1023.43988	3101.95435	-2012.49365	1022.12445	3140.71362
8	0.07	-905.28381	1658.93604	1047.15588	-865.46973	1664.17737	1155.03333	-1012.1637	1607.12903	1082.4043	-973.83258	1611.58411	1197.02332	-1033.88306	1423.77856	1108.57996	-1091.54517	1133.78564	1103.74451	-890.44348	1348.61621	1098.70154	-860.03583	1191.40576	1092.82959	-1097.24451	1237.16797	1186.479	-954.99304	1384.94409	941.24762	-1029.69104	1215.26514	852.92822	-1088.35413	1080.05481	852.59613	-1099.06421	970.11139	820.21014	-1076.56653	830.69153	822.2627	-1130.24561	852.08801	807.88812	-1120.79724	772.80731	783.54712	-945.75861	1389.92224	1250.10278	-1003.29535	1202.39563	1364.26636	-988.448	1078.11206	1389.8988	-891.12183	1001.98083	1418.42334	-755.03375	975.47858	1398.71863	-785.81549	942.54413	1433.1366	-705.05438	921.24292	1442.97559	-920.35571	922.45636	999.01331	-938.67242	918.47192	1217.00769	-1108.10718	937.19641	1030.70178	-1120.01721	950.50677	1172.91931	-869.60718	606.11084	933.64032	-833.70538	481.87073	961.09656	-823.13556	294.7757	952.64618	-767.99866	78.3266	1007.71912	-800.21741	36.80194	1063.55713	-622.32751	92.33615	1005.08844	-1098.75647	615.21484	1275.2323	-1147.75647	460.98285	1258.08105	-1264.1792	327.22675	1258.15442	-1358.96655	138.96069	1219.59448	-1409.15613	123.61237	1162.72144	-1252.00366	40.28359	1235.72925	-884.17114	1697.24097	1136.88037	-1973.09985	1023.98767	3102.08594	-2012.49158	1021.96716	3140.8335
